<svg width="24" height="24" viewBox="0 0 24 24" fill="none" xmlns="http://www.w3.org/2000/svg">
<path d="M6.85859 9.76L5.77859 10.48L5.35859 9.76L7.21859 8.44H7.81859V16H6.85859V9.76ZM11.7134 16.06C11.3374 16.06 10.9934 16 10.6814 15.88C10.3774 15.76 10.1134 15.6 9.88944 15.4C9.66544 15.2 9.49344 14.968 9.37344 14.704C9.25344 14.432 9.19344 14.144 9.19344 13.84C9.19344 13.48 9.26144 13.18 9.39744 12.94C9.53344 12.692 9.68544 12.492 9.85344 12.34C10.0454 12.164 10.2654 12.024 10.5134 11.92C10.3134 11.848 10.1414 11.74 9.99744 11.596C9.86944 11.476 9.75344 11.316 9.64944 11.116C9.54544 10.916 9.49344 10.664 9.49344 10.36C9.49344 10.104 9.54944 9.86 9.66144 9.628C9.77344 9.388 9.92944 9.176 10.1294 8.992C10.3294 8.808 10.5654 8.66 10.8374 8.548C11.1094 8.436 11.4014 8.38 11.7134 8.38C12.0254 8.38 12.3174 8.436 12.5894 8.548C12.8614 8.66 13.0974 8.808 13.2974 8.992C13.4974 9.176 13.6534 9.388 13.7654 9.628C13.8774 9.86 13.9334 10.104 13.9334 10.36C13.9334 10.664 13.8774 10.916 13.7654 11.116C13.6614 11.316 13.5454 11.476 13.4174 11.596C13.2734 11.74 13.1054 11.848 12.9134 11.92C13.1534 12.024 13.3734 12.164 13.5734 12.34C13.7334 12.492 13.8814 12.692 14.0174 12.94C14.1614 13.18 14.2334 13.48 14.2334 13.84C14.2334 14.144 14.1734 14.432 14.0534 14.704C13.9334 14.968 13.7614 15.2 13.5374 15.4C13.3134 15.6 13.0454 15.76 12.7334 15.88C12.4294 16 12.0894 16.06 11.7134 16.06ZM11.7134 15.22C12.1934 15.22 12.5734 15.088 12.8534 14.824C13.1334 14.552 13.2734 14.204 13.2734 13.78C13.2734 13.388 13.1334 13.06 12.8534 12.796C12.5734 12.532 12.1934 12.4 11.7134 12.4C11.2334 12.4 10.8534 12.532 10.5734 12.796C10.2934 13.06 10.1534 13.388 10.1534 13.78C10.1534 14.204 10.2934 14.552 10.5734 14.824C10.8534 15.088 11.2334 15.22 11.7134 15.22ZM11.7134 11.56C11.8894 11.56 12.0534 11.528 12.2054 11.464C12.3654 11.4 12.5014 11.316 12.6134 11.212C12.7254 11.108 12.8134 10.988 12.8774 10.852C12.9414 10.716 12.9734 10.572 12.9734 10.42C12.9734 10.252 12.9414 10.096 12.8774 9.952C12.8134 9.808 12.7254 9.684 12.6134 9.58C12.5014 9.468 12.3654 9.38 12.2054 9.316C12.0534 9.252 11.8894 9.22 11.7134 9.22C11.5294 9.22 11.3614 9.252 11.2094 9.316C11.0574 9.38 10.9254 9.468 10.8134 9.58C10.7014 9.684 10.6134 9.808 10.5494 9.952C10.4854 10.096 10.4534 10.252 10.4534 10.42C10.4534 10.572 10.4854 10.716 10.5494 10.852C10.6134 10.988 10.7014 11.108 10.8134 11.212C10.9254 11.316 11.0574 11.4 11.2094 11.464C11.3614 11.528 11.5294 11.56 11.7134 11.56ZM16.8763 13.3H15.0163V12.52H16.8763V10.54H17.7163V12.52H19.5763V13.3H17.7163V15.28H16.8763V13.3Z" fill="#FF879B"/>
<circle cx="12" cy="12" r="11.5" stroke="#FF879B"/>
</svg>
