<svg width="20" height="23" viewBox="0 0 20 23" fill="none" xmlns="http://www.w3.org/2000/svg">
<path fill-rule="evenodd" clip-rule="evenodd" d="M14.8887 0C15.0482 1.34804 14.4692 2.7005 13.6116 3.67316C12.7539 4.64439 11.3468 5.40113 9.96907 5.30111C9.7803 3.98051 10.4769 2.60347 11.271 1.74384C12.158 0.771183 13.6533 0.0464363 14.8887 0ZM19.3453 7.85033C19.1216 7.97828 16.6756 9.37756 16.7028 12.2195C16.7364 15.6539 19.8781 16.8271 19.9969 16.8714C19.9985 16.872 19.9995 16.8724 20 16.8726C19.999 16.8755 19.9975 16.8802 19.9954 16.8866C19.9372 17.0646 19.4418 18.5801 18.3003 20.1443C17.2755 21.5445 16.2136 22.9405 14.5402 22.9709C13.7364 22.9844 13.199 22.7664 12.6404 22.54C12.0554 22.3028 11.4473 22.0562 10.486 22.0562C9.47931 22.0562 8.84309 22.31 8.22992 22.5545C7.69844 22.7665 7.18428 22.9715 6.4612 22.9984C4.84509 23.0564 3.61599 21.4837 2.58347 20.0877C0.475101 17.2321 -1.13792 12.018 1.02773 8.49992C2.10204 6.75175 4.02311 5.64574 6.10981 5.61675C7.00878 5.6003 7.87987 5.92373 8.64232 6.20682C9.2243 6.4229 9.74299 6.61549 10.1625 6.61549C10.5389 6.61549 11.0437 6.42917 11.6324 6.21189C12.5594 5.86976 13.6945 5.45084 14.8637 5.56166C15.6656 5.59355 17.9133 5.86461 19.3576 7.84327C19.3548 7.84488 19.3507 7.84723 19.3453 7.85033Z" fill="#B3B3B3"/>
</svg>
