<svg width="23" height="23" viewBox="0 0 23 23" fill="none" xmlns="http://www.w3.org/2000/svg">
<path d="M22.9998 11.7589C22.9998 11.0018 22.9313 10.2831 22.8138 9.5835H11.7495V13.9056H18.0845C17.8006 15.3239 16.9683 16.5218 15.7346 17.3364V20.2114H19.5141C21.7269 18.2085 22.9998 15.2568 22.9998 11.7589Z" fill="#4285F4"/>
<path d="M11.7498 22.9998C14.9222 22.9998 17.5757 21.9648 19.5144 20.211L15.7349 17.336C14.6774 18.026 13.336 18.4477 11.7498 18.4477C8.68507 18.4477 6.09035 16.4256 5.16016 13.6943H1.26318V16.6556C3.19209 20.4123 7.15761 22.9998 11.7498 22.9998Z" fill="#34A853"/>
<path d="M5.16007 13.6947C4.91528 13.0047 4.78799 12.2667 4.78799 11.5001C4.78799 10.7334 4.92508 9.99549 5.16007 9.30549V6.34424H1.26309C0.460195 7.89674 0 9.6409 0 11.5001C0 13.3592 0.460195 15.1034 1.26309 16.6559L5.16007 13.6947Z" fill="#FBBC05"/>
<path d="M11.7498 4.55208C13.4829 4.55208 15.0299 5.13667 16.2538 6.27709L19.6025 2.99958C17.5757 1.14042 14.9222 0 11.7498 0C7.15761 0 3.19209 2.5875 1.26318 6.34417L5.16016 9.30542C6.09035 6.57417 8.68507 4.55208 11.7498 4.55208Z" fill="#EA4335"/>
</svg>
