<svg width="22" height="22" viewBox="0 0 22 22" fill="none" xmlns="http://www.w3.org/2000/svg">
<path fill-rule="evenodd" clip-rule="evenodd" d="M1.8335 3.65152V20.1818C1.8335 21.186 2.64752 22 3.65168 22H17.432C18.4361 22 19.2502 21.186 19.2502 20.1818V3.65151C19.2502 2.64736 18.4361 1.83333 17.432 1.83333H15.5835C15.5835 0.829179 14.3111 0 13.307 0H7.31834C6.31419 0 5.50016 0.829179 5.50016 1.83333H3.65168C2.64752 1.83333 1.8335 2.64736 1.8335 3.65152ZM8.25016 1.83333C7.79347 1.60499 7.95596 0.916667 8.46656 0.916667H12.6171C13.1277 0.916667 13.2902 1.60499 12.8335 1.83333H8.25016ZM7.74733 10.3418C8.26282 10.7646 9.14499 11.0914 10.4502 11.0914C13.3867 11.0915 15.0179 12.7341 15.2474 14.5163C15.36 15.3899 15.1265 16.2787 14.5495 16.9527C13.9674 17.6327 13.0666 18.0582 11.9168 18.0582L11.9168 17.1415C12.8295 17.1416 13.4642 16.8109 13.8532 16.3565C14.2473 15.8961 14.4206 15.2724 14.3383 14.6334C14.1782 13.3906 13.0136 12.0081 10.4501 12.0081C9.00532 12.0081 7.89373 11.6474 7.16599 11.0505C6.42856 10.4457 6.10394 9.6065 6.26443 8.76034C6.5828 7.0818 8.65768 5.77151 11.943 5.95933L11.8907 6.8745C8.7593 6.69548 7.35084 7.95157 7.16504 8.93116C7.07345 9.41405 7.24153 9.9269 7.74733 10.3418ZM14.896 6.70119L16.6344 8.4396L17.2826 7.79142L15.5442 6.05301L17.2826 4.3146L16.6344 3.66642L14.896 5.40483L13.1576 3.66642L12.5094 4.3146L14.2478 6.05301L12.5094 7.79142L13.1576 8.4396L14.896 6.70119Z" fill="#8F8F9F"/>
<circle cx="7.05827" cy="17.4235" r="2.29167" stroke="#1A1C2A" stroke-width="0.916667"/>
</svg>
