<svg width="24" height="24" viewBox="0 0 24 24" fill="none" xmlns="http://www.w3.org/2000/svg">
<path fill-rule="evenodd" clip-rule="evenodd" d="M2.6352 9.16699H7.44781C8.06821 9.16699 8.37841 9.16699 8.61278 9.04053C8.79383 8.94284 8.94235 8.79432 9.04004 8.61327C9.1665 8.37889 9.1665 8.06869 9.1665 7.44829V2.63569C9.1665 2.01529 9.1665 1.70509 9.04004 1.47071C8.94235 1.28966 8.79383 1.14114 8.61278 1.04346C8.37841 0.916992 8.06821 0.916992 7.44781 0.916992H2.6352C2.0148 0.916992 1.7046 0.916992 1.47022 1.04346C1.28917 1.14114 1.14066 1.28966 1.04297 1.47071C0.916504 1.70509 0.916504 2.01529 0.916504 2.63569V7.44829C0.916504 8.06869 0.916504 8.37889 1.04297 8.61327C1.14066 8.79432 1.28917 8.94284 1.47022 9.04053C1.7046 9.16699 2.0148 9.16699 2.6352 9.16699ZM12.7185 9.16699H17.5311C18.1515 9.16699 18.4617 9.16699 18.6961 9.04053C18.8772 8.94284 19.0257 8.79432 19.1234 8.61327C19.2498 8.37889 19.2498 8.06869 19.2498 7.44829V2.63569C19.2498 2.01529 19.2498 1.70509 19.1234 1.47071C19.0257 1.28966 18.8772 1.14114 18.6961 1.04346C18.4617 0.916992 18.1515 0.916992 17.5311 0.916992H12.7185C12.0981 0.916992 11.7879 0.916992 11.5536 1.04346C11.3725 1.14114 11.224 1.28966 11.1263 1.47071C10.9998 1.70509 10.9998 2.01529 10.9998 2.63569V7.44829C10.9998 8.06869 10.9998 8.37889 11.1263 8.61327C11.224 8.79432 11.3725 8.94284 11.5536 9.04053C11.7879 9.16699 12.0981 9.16699 12.7185 9.16699ZM7.44781 19.2503H2.6352C2.0148 19.2503 1.7046 19.2503 1.47022 19.1239C1.28917 19.0262 1.14066 18.8777 1.04297 18.6966C0.916504 18.4622 0.916504 18.152 0.916504 17.5316V12.719C0.916504 12.0986 0.916504 11.7884 1.04297 11.554C1.14066 11.373 1.28917 11.2245 1.47022 11.1268C1.7046 11.0003 2.0148 11.0003 2.6352 11.0003H7.44781C8.06821 11.0003 8.37841 11.0003 8.61278 11.1268C8.79383 11.2245 8.94235 11.373 9.04004 11.554C9.1665 11.7884 9.1665 12.0986 9.1665 12.719V17.5316C9.1665 18.152 9.1665 18.4622 9.04004 18.6966C8.94235 18.8777 8.79383 19.0262 8.61278 19.1239C8.37841 19.2503 8.06821 19.2503 7.44781 19.2503ZM19.2492 12.4196C18.8287 12.3194 18.3905 12.2663 17.9404 12.2663C14.8194 12.2663 12.2658 14.8199 12.2658 17.9409C12.2658 18.3909 12.3189 18.8292 12.4192 19.2496C11.9915 19.2464 11.7468 19.2281 11.5536 19.1239C11.3725 19.0262 11.224 18.8777 11.1263 18.6966C10.9998 18.4622 10.9998 18.152 10.9998 17.5316V12.719C10.9998 12.0986 10.9998 11.7884 11.1263 11.554C11.224 11.373 11.3725 11.2245 11.5536 11.1268C11.7879 11.0003 12.0981 11.0003 12.7185 11.0003H17.5311C18.1515 11.0003 18.4617 11.0003 18.6961 11.1268C18.8772 11.2245 19.0257 11.373 19.1234 11.554C19.2276 11.7473 19.2459 11.992 19.2492 12.4196Z" fill="#8F8F9F"/>
<path d="M18.1751 13C21.0213 13 23.3501 15.3288 23.3501 18.175C23.3501 21.0213 21.0213 23.35 18.1751 23.35C15.3288 23.35 13.0001 21.0213 13.0001 18.175C13.0001 15.3288 15.3288 13 18.1751 13ZM15.9498 19.831L18.6926 18.3303V15.5875H17.9163V17.8645L15.5876 19.1583L15.9498 19.831Z" fill="#8F8F9F"/>
</svg>
