<svg width="180" height="22" viewBox="0 0 180 22" fill="none" xmlns="http://www.w3.org/2000/svg">
<path d="M8.54047 9.0158C8.26966 8.48123 7.70829 8.43398 7.68642 8.43186H4.6017C4.27729 8.43186 4.01353 8.16951 4.01353 7.8451C4.01353 7.52069 4.27729 7.25834 4.6017 7.25834H7.07075C7.28867 7.23436 7.78939 7.09049 7.508 6.24562C7.50165 6.22798 7.50165 6.216 7.49812 6.20119L5.41625 0.575477C5.2886 0.229203 4.95785 0 4.59041 0H0.879436C0.39423 0 0 0.39423 0 0.880846V21.1192C0 21.6051 0.39423 22 0.879436 22H7.01997C7.50659 22 7.90152 21.6058 7.90152 21.1192V15.576C7.96852 14.9659 8.37544 14.7917 8.59195 14.7487H9.40651C9.89312 14.7487 10.2866 14.3545 10.2866 13.8686C10.2866 13.7184 10.25 13.5766 10.183 13.4525L8.54118 9.0158H8.54047Z" fill="white"/>
<path d="M13.2155 9.0158C13.4863 8.48123 14.0463 8.43398 14.0681 8.43186H17.1543C17.4787 8.43186 17.741 8.16951 17.741 7.8451C17.741 7.52069 17.4787 7.25834 17.1543 7.25834H14.6838C14.4673 7.23436 13.9652 7.09049 14.248 6.24562C14.2529 6.22798 14.2529 6.216 14.2579 6.20119L16.3397 0.575477C16.4674 0.229203 16.7967 0 17.1642 0H20.8758C21.3625 0 21.7553 0.39423 21.7553 0.880846V21.1192C21.7553 21.6051 21.3625 22 20.8758 22H14.7353C14.2487 22 13.8552 21.6058 13.8552 21.1192V15.576C13.7868 14.9659 13.3798 14.7917 13.1633 14.7487H12.3488C11.8636 14.7487 11.4686 14.3545 11.4686 13.8686C11.4686 13.7184 11.5067 13.5766 11.5737 13.4525L13.2155 9.0158Z" fill="#78787C"/>
<path d="M36.0082 6.36621H40.7361C43.2757 6.36621 44.8963 7.6695 44.8963 9.85786C44.8963 11.2613 44.2616 12.2634 43.2256 12.8488V13.066L45.481 16.2241V16.3912H42.7242L40.7523 13.4673H38.4299V16.3912H36.0074V6.36621H36.0082ZM40.6359 8.45443H38.4307V11.4616H40.6529C41.7721 11.4616 42.3906 10.9602 42.3906 9.958C42.3906 8.95586 41.7559 8.45443 40.6359 8.45443Z" fill="white"/>
<path d="M51.6137 16.3905H49.1912V6.36621H51.6137V16.3905Z" fill="white"/>
<path d="M60.2014 12.2472H60.3016L61.0533 10.4764L62.9582 6.36621H65.715L60.4518 16.3905H60.0173L54.8042 6.36621H57.5109L59.432 10.4764L60.2007 12.2472H60.2014Z" fill="white"/>
<path d="M71.546 6.36621H71.9473L77.2105 16.3905H74.4706L73.9191 15.2043H69.5586L69.0241 16.3905H66.3004L71.5467 6.36621H71.546ZM71.7964 10.6096H71.6624L70.4261 13.2324L70.2759 13.4997H73.1829L73.0326 13.2324L71.7964 10.6096Z" fill="white"/>
<path d="M80.3848 16.3905V6.36621H82.8073V14.3023H87.9033V16.3905H80.3848Z" fill="white"/>
<path d="M96.1237 6.36621H104.093V8.45443H98.5462V10.4263H103.241V12.3311H98.5462V16.3912H96.1237V6.36621Z" fill="white"/>
<path d="M111.311 6.36621H111.712L116.976 16.3905H114.236L113.684 15.2043H109.324L108.789 16.3905H106.065L111.312 6.36621H111.311ZM111.561 10.6096H111.428L110.192 13.2324L110.042 13.4997H112.949L112.798 13.2324L111.562 10.6096H111.561Z" fill="white"/>
<path d="M129.589 16.3905H129.038L122.555 10.86V16.3905H120.149V6.36621H120.701L127.183 11.6795V6.38314H129.589V16.3905Z" fill="white"/>
<path d="M133.232 6.36621H141.954V8.45443H138.813V16.3905H136.39V8.45443H133.232V6.36621Z" fill="white"/>
<path d="M148.419 6.36621H148.821L154.084 16.3905H151.344L150.793 15.2043H146.432L145.897 16.3905H143.174L148.42 6.36621H148.419ZM148.67 10.6096H148.536L147.3 13.2324L147.15 13.4997H150.057L149.907 13.2324L148.67 10.6096H148.67Z" fill="white"/>
<path d="M158.444 13.4171C158.444 13.4171 159.898 14.3861 161.368 14.3861C162.287 14.3861 162.622 14.0018 162.622 13.5504C162.622 13.0328 162.271 12.7655 160.751 12.3473C158.545 11.7288 157.292 10.9107 157.292 9.25622C157.292 7.43529 158.595 6.14893 161.318 6.14893C164.041 6.14893 165.228 7.21807 165.228 7.21807L163.925 9.18993C163.925 9.18993 162.839 8.35421 161.318 8.35421C160.366 8.35421 160.082 8.67157 160.082 9.08908C160.082 9.5905 160.55 9.79079 161.82 10.1251C164.175 10.7436 165.462 11.6117 165.462 13.2831C165.462 15.1041 164.193 16.6077 161.436 16.6077C158.679 16.6077 157.126 15.2712 157.126 15.2712L158.446 13.4164L158.444 13.4171Z" fill="white"/>
<path d="M175.686 6.36643H178.476L174.733 12.5648V16.3907H172.311V12.5479L168.618 6.36572H171.408L173.146 9.40672L173.497 10.1754H173.597L173.948 9.40672L175.686 6.36572V6.36643Z" fill="white"/>
</svg>
