<svg width="30" height="30" viewBox="0 0 30 30" fill="none" xmlns="http://www.w3.org/2000/svg">
<path d="M15 30C23.2843 30 30 23.2843 30 15C30 6.71573 23.2843 0 15 0C6.71573 0 0 6.71573 0 15C0 23.2843 6.71573 30 15 30Z" fill="#424659"/>
<path fill-rule="evenodd" clip-rule="evenodd" d="M11.4145 14.2519H21C21.5523 14.2519 22 14.6996 22 15.2519C22 15.8042 21.5523 16.2519 21 16.2519H11.4142L13.9536 18.7914C14.3442 19.1819 14.3442 19.8151 13.9536 20.2056C13.5631 20.5961 12.93 20.5961 12.5394 20.2056L8.29679 15.963C8.29484 15.961 8.29289 15.9591 8.29096 15.9571C8.11113 15.7763 8 15.5271 8 15.2519C8 14.9682 8.11819 14.712 8.30803 14.53L12.5451 10.2929C12.9357 9.90237 13.5688 9.90237 13.9593 10.2929C14.3499 10.6834 14.3499 11.3166 13.9593 11.7071L11.4145 14.2519Z" fill="#8F8F9F"/>
</svg>
