<svg width="22" height="22" viewBox="0 0 22 22" fill="none" xmlns="http://www.w3.org/2000/svg">
<path d="M20.1668 18.6725V1.49417C20.1668 0.954815 20.1668 0.68514 20.0569 0.481382C19.972 0.323984 19.8428 0.194869 19.6854 0.109942C19.4817 0 19.212 0 18.6727 0H4.79713C3.72734 0 3.19245 0 2.7883 0.218067C2.47611 0.386517 2.22001 0.642614 2.05156 0.954807C1.8335 1.35896 1.8335 1.89385 1.8335 2.96363V17.203C1.8335 18.2728 1.8335 18.8077 2.05156 19.2119C2.22001 19.5241 2.47611 19.7802 2.7883 19.9486C3.19245 20.1667 3.72734 20.1667 4.79713 20.1667H18.6727C19.212 20.1667 19.4817 20.1667 19.6854 20.0567C19.8428 19.9718 19.972 19.8427 20.0569 19.6853C20.1668 19.4815 20.1668 19.2119 20.1668 18.6725Z" fill="#8F8F9F"/>
<path d="M2.51561 19.4849H2.75032H18.0512L18.5209 19.0152H4.58365H2.51547V19.25C2.51547 19.3333 2.51548 19.4114 2.51561 19.4849Z" fill="#8F8F9F" stroke="#8F8F9F" stroke-width="1.36364"/>
<path d="M12.2835 9.1665V10.3271L13.1818 9.59218L14.6668 8.37714L16.1519 9.59218L17.0502 10.3271V9.1665V3.6665V3.1165H16.5002H12.8335H12.2835V3.6665V9.1665Z" fill="#1A1C2A" stroke="#1A1C2A" stroke-width="1.1"/>
</svg>
