<svg width="16" height="16" viewBox="0 0 16 16" fill="none" xmlns="http://www.w3.org/2000/svg">
<path d="M12.8806 3.708C12.7793 3.65563 12.6807 3.59822 12.5852 3.536C12.3077 3.35248 12.0532 3.13626 11.8272 2.892C11.2612 2.24467 11.0499 1.588 10.9726 1.12867H10.9752C10.9106 0.746667 10.9372 0.5 10.9419 0.5H8.36522V10.462C8.36522 10.5953 8.36522 10.728 8.35989 10.8587C8.35989 10.8747 8.35789 10.8893 8.35722 10.9073C8.35722 10.914 8.35722 10.922 8.35522 10.9293V10.9353C8.32816 11.2927 8.21369 11.6379 8.02188 11.9406C7.83006 12.2433 7.56679 12.4943 7.25522 12.6713C6.93017 12.8563 6.56252 12.9532 6.18855 12.9527C4.98855 12.9527 4.01522 11.974 4.01522 10.7653C4.01522 9.556 4.98855 8.57733 6.18855 8.57733C6.41589 8.57733 6.64189 8.61333 6.85789 8.684L6.86122 6.06C6.20523 5.97537 5.53882 6.02764 4.90405 6.21353C4.26928 6.39942 3.67993 6.71488 3.17322 7.14C2.72912 7.52569 2.35574 7.98593 2.06989 8.5C1.96122 8.68733 1.55055 9.44133 1.50122 10.664C1.46989 11.3573 1.67855 12.0773 1.77789 12.374V12.3807C1.83989 12.5553 2.08255 13.1527 2.47722 13.656C2.79548 14.06 3.17152 14.4149 3.59322 14.7093V14.7027L3.59922 14.7093C4.84589 15.556 6.22922 15.5007 6.22922 15.5007C6.46855 15.4907 7.27055 15.5007 8.18122 15.0693C9.19122 14.5907 9.76589 13.878 9.76589 13.878C10.1333 13.4521 10.4255 12.9667 10.6299 12.4427C10.8632 11.8293 10.9406 11.0947 10.9406 10.8013V5.51533C10.9719 5.534 11.3886 5.80933 11.3886 5.80933C11.3886 5.80933 11.9886 6.194 12.9239 6.444C13.5946 6.622 14.4992 6.66 14.4992 6.66V4.102C14.1826 4.13667 13.5392 4.03667 12.8799 3.70867L12.8806 3.708Z" fill="#F0F0F0"/>
</svg>
